<svg width="303" height="60" viewBox="0 0 303 60" fill="none" xmlns="http://www.w3.org/2000/svg">
<g clip-path="url(#clip0_5_1050)">
<path d="M80.1018 46.6667V38.9352H86.2315V7.73148H80.1018V0H99.3055C105.574 0 110.343 1.59259 113.602 4.76852C116.87 7.94444 118.5 12.6667 118.5 18.9352V27.7315C118.5 34 116.87 38.7222 113.602 41.8981C110.333 45.0741 105.565 46.6667 99.3055 46.6667H80.1018ZM95.037 38.6667H99.4352C102.991 38.6667 105.593 37.7315 107.231 35.8704C108.87 34 109.694 31.3796 109.694 28V18.6667C109.694 15.2407 108.87 12.6111 107.231 10.7685C105.583 8.92593 102.991 8 99.4352 8H95.037V38.6667Z" fill="#1D1D1B"/>
<path d="M133.028 47.6018C130.676 47.6018 128.565 47.1944 126.694 46.3703C124.824 45.5463 123.352 44.3518 122.259 42.7685C121.167 41.1944 120.63 39.2685 120.63 37C120.63 34.7315 121.176 32.8333 122.259 31.2963C123.352 29.7592 124.861 28.6111 126.796 27.8333C128.731 27.0555 130.944 26.6666 133.426 26.6666H142.491V24.7963C142.491 23.2407 142 21.9629 141.028 20.9629C140.046 19.9629 138.491 19.4629 136.361 19.4629C134.231 19.4629 132.713 19.9444 131.694 20.8981C130.676 21.8518 130.009 23.0833 129.694 24.6018L121.963 22C122.5 20.3148 123.352 18.7685 124.528 17.3703C125.704 15.9722 127.287 14.8333 129.259 13.9722C131.241 13.1018 133.648 12.6759 136.491 12.6759C140.843 12.6759 144.287 13.7685 146.824 15.9444C149.361 18.1203 150.62 21.2778 150.62 25.4074V37.7407C150.62 39.0741 151.241 39.7407 152.491 39.7407H155.157V46.6759H149.556C147.907 46.6759 146.556 46.2778 145.491 45.4722C144.426 44.6759 143.889 43.6018 143.889 42.2685V42.2037H142.62C142.444 42.7407 142.046 43.4352 141.417 44.3055C140.796 45.1759 139.815 45.9352 138.481 46.6018C137.148 47.2685 135.324 47.6018 133.019 47.6018H133.028ZM134.491 40.8055C136.843 40.8055 138.768 40.1481 140.259 38.8426C141.75 37.5278 142.491 35.787 142.491 33.6111V32.9444H134.028C132.472 32.9444 131.25 33.2778 130.361 33.9444C129.472 34.6111 129.028 35.5463 129.028 36.7407C129.028 37.9352 129.491 38.9166 130.426 39.6759C131.361 40.4352 132.713 40.8055 134.491 40.8055Z" fill="#1D1D1B"/>
<path d="M168.231 46.6667C166.056 46.6667 164.287 45.9908 162.935 44.6297C161.583 43.2778 160.898 41.463 160.898 39.1945V20.5371H152.63V13.6019H160.898V3.33337H169.296V13.6019H178.361V20.5371H169.296V37.7408C169.296 39.0741 169.917 39.7408 171.167 39.7408H177.565V46.676H168.231V46.6667Z" fill="#1D1D1B"/>
<path d="M192.898 47.6018C190.546 47.6018 188.435 47.1944 186.565 46.3703C184.694 45.5463 183.222 44.3518 182.13 42.7685C181.037 41.1944 180.5 39.2685 180.5 37C180.5 34.7315 181.046 32.8333 182.13 31.2963C183.222 29.7592 184.731 28.6111 186.667 27.8333C188.602 27.0555 190.806 26.6666 193.296 26.6666H202.361V24.7963C202.361 23.2407 201.87 21.9629 200.898 20.9629C199.917 19.9629 198.361 19.4629 196.231 19.4629C194.102 19.4629 192.583 19.9444 191.565 20.8981C190.537 21.8518 189.87 23.0833 189.565 24.6018L181.833 22C182.37 20.3148 183.222 18.7685 184.398 17.3703C185.574 15.9722 187.157 14.8333 189.13 13.9722C191.102 13.1018 193.518 12.6759 196.361 12.6759C200.713 12.6759 204.157 13.7685 206.694 15.9444C209.231 18.1203 210.491 21.2778 210.491 25.4074V37.7407C210.491 39.0741 211.111 39.7407 212.361 39.7407H215.028V46.6759H209.426C207.778 46.6759 206.426 46.2778 205.361 45.4722C204.296 44.6759 203.759 43.6018 203.759 42.2685V42.2037H202.491C202.315 42.7407 201.917 43.4352 201.287 44.3055C200.657 45.1759 199.685 45.9352 198.352 46.6018C197.018 47.2685 195.194 47.6018 192.889 47.6018H192.898ZM194.361 40.8055C196.713 40.8055 198.639 40.1481 200.13 38.8426C201.62 37.5278 202.361 35.787 202.361 33.6111V32.9444H193.898C192.343 32.9444 191.12 33.2778 190.231 33.9444C189.343 34.6111 188.898 35.5463 188.898 36.7407C188.898 37.9352 189.361 38.9166 190.296 39.6759C191.231 40.4352 192.583 40.8055 194.361 40.8055Z" fill="#1D1D1B"/>
<path d="M217.824 46.6667V0H226.222V46.6667H217.824Z" fill="#1D1D1B"/>
<path d="M247.963 47.6018C244.676 47.6018 241.722 46.9352 239.093 45.6018C236.472 44.2685 234.407 42.3333 232.889 39.8056C231.37 37.2778 230.62 34.2315 230.62 30.6759V29.6111C230.62 26.0555 231.38 23.0093 232.889 20.4815C234.398 17.9444 236.463 16.0185 239.093 14.6852C241.713 13.3518 244.667 12.6852 247.963 12.6852C251.259 12.6852 254.204 13.3518 256.833 14.6852C259.454 16.0185 261.518 17.9537 263.037 20.4815C264.546 23.0185 265.306 26.0555 265.306 29.6111V30.6759C265.306 34.2315 264.546 37.2778 263.037 39.8056C261.528 42.3333 259.463 44.2685 256.833 45.6018C254.213 46.9352 251.259 47.6018 247.963 47.6018ZM247.963 40.1389C250.537 40.1389 252.676 39.3056 254.361 37.6389C256.046 35.9722 256.898 33.5833 256.898 30.4722V29.8055C256.898 26.6944 256.065 24.3056 254.398 22.6389C252.731 20.9722 250.583 20.1389 247.963 20.1389C245.343 20.1389 243.25 20.9722 241.565 22.6389C239.87 24.3056 239.028 26.6944 239.028 29.8055V30.4722C239.028 33.5833 239.87 35.9722 241.565 37.6389C243.25 39.3056 245.389 40.1389 247.963 40.1389Z" fill="#1D1D1B"/>
<path d="M268.093 30.2685V29.2037C268.093 25.7407 268.778 22.7685 270.157 20.3055C271.537 17.8426 273.37 15.9537 275.657 14.6389C277.944 13.3241 280.444 12.6759 283.157 12.6759C286.176 12.6759 288.472 13.2129 290.028 14.2778C291.583 15.3426 292.713 16.4537 293.426 17.6111H294.63V13.6111H302.898V52.537C302.898 54.8055 302.231 56.6111 300.898 57.9722C299.565 59.3241 297.787 60.0092 295.565 60.0092H273.435V52.6759H292.639C293.88 52.6759 294.509 52.0092 294.509 50.6759V42.0741H293.306C292.861 42.787 292.241 43.5092 291.435 44.2407C290.639 44.9722 289.565 45.5833 288.231 46.0741C286.898 46.5648 285.213 46.8055 283.167 46.8055C280.454 46.8055 277.954 46.1481 275.667 44.8426C273.38 43.5278 271.546 41.6389 270.167 39.1759C268.787 36.7129 268.102 33.7407 268.102 30.2778L268.093 30.2685ZM285.556 39.4722C288.13 39.4722 290.287 38.6481 292.018 37.0092C293.75 35.3611 294.62 33.0555 294.62 30.0741V29.4074C294.62 26.3889 293.769 24.0648 292.056 22.4444C290.343 20.8241 288.176 20.0092 285.556 20.0092C282.935 20.0092 280.824 20.8241 279.093 22.4444C277.361 24.0648 276.491 26.3889 276.491 29.4074V30.0741C276.491 33.0555 277.361 35.3611 279.093 37.0092C280.824 38.6574 282.981 39.4722 285.556 39.4722Z" fill="#1D1D1B"/>
<path d="M8.28704 0H0V8.28704H8.28704V0Z" fill="#5A4B9A"/>
<path d="M58.9537 0H12.7963V8.28704H58.9537V0Z" fill="#5A4B9A"/>
<path d="M50.6667 21.0741H58.9537V12.7871L50.6667 12.7871V21.0741Z" fill="#5A4B9A"/>
<path d="M7.62939e-06 21.0741L46.1574 21.0741V12.7871L7.62939e-06 12.7871V21.0741Z" fill="#5A4B9A"/>
<path d="M8.28704 25.5834H0V33.8704H8.28704V25.5834Z" fill="#5A4B9A"/>
<path d="M58.9537 25.5834H12.7963V33.8704H58.9537V25.5834Z" fill="#5A4B9A"/>
<path d="M50.6667 46.6666H58.9537V38.3796H50.6667V46.6666Z" fill="#5A4B9A"/>
<path d="M7.62939e-06 46.6666L46.1574 46.6666V38.3796L7.62939e-06 38.3796V46.6666Z" fill="#5A4B9A"/>
</g>
<defs>
<clipPath id="clip0_5_1050">
<rect width="302.898" height="60" fill="white"/>
</clipPath>
</defs>
</svg>
