<svg width="180" height="18" viewBox="0 0 180 18" fill="none" xmlns="http://www.w3.org/2000/svg">
<path d="M2.408 10.346V8.792H4.69C4.98867 8.792 5.25933 8.73133 5.502 8.61C5.74467 8.48867 5.936 8.316 6.076 8.092C6.216 7.85867 6.286 7.57867 6.286 7.252C6.286 6.93467 6.216 6.65933 6.076 6.426C5.936 6.19267 5.74467 6.01533 5.502 5.894C5.25933 5.77267 4.98867 5.712 4.69 5.712H2.408V4.158H4.886C5.51133 4.158 6.07133 4.284 6.566 4.536C7.07 4.788 7.46667 5.14733 7.756 5.614C8.04533 6.07133 8.19 6.61733 8.19 7.252C8.19 7.88667 8.04533 8.43733 7.756 8.904C7.46667 9.36133 7.07 9.716 6.566 9.968C6.07133 10.22 5.51133 10.346 4.886 10.346H2.408ZM1.008 14V4.158H2.912V14H1.008ZM12.3025 14.14C11.6212 14.14 11.0052 13.986 10.4545 13.678C9.91317 13.3607 9.47917 12.936 9.1525 12.404C8.83517 11.8627 8.6765 11.2607 8.6765 10.598C8.6765 9.93533 8.83517 9.34267 9.1525 8.82C9.46983 8.288 9.90383 7.868 10.4545 7.56C11.0052 7.24267 11.6165 7.084 12.2885 7.084C12.9792 7.084 13.5952 7.24267 14.1365 7.56C14.6872 7.868 15.1212 8.288 15.4385 8.82C15.7558 9.34267 15.9145 9.93533 15.9145 10.598C15.9145 11.2607 15.7558 11.8627 15.4385 12.404C15.1212 12.936 14.6872 13.3607 14.1365 13.678C13.5952 13.986 12.9838 14.14 12.3025 14.14ZM12.2885 12.432C12.6338 12.432 12.9372 12.3573 13.1985 12.208C13.4692 12.0493 13.6745 11.8347 13.8145 11.564C13.9638 11.284 14.0385 10.9667 14.0385 10.612C14.0385 10.2573 13.9638 9.94467 13.8145 9.674C13.6652 9.40333 13.4598 9.19333 13.1985 9.044C12.9372 8.88533 12.6338 8.806 12.2885 8.806C11.9525 8.806 11.6538 8.88533 11.3925 9.044C11.1312 9.19333 10.9258 9.40333 10.7765 9.674C10.6272 9.94467 10.5525 10.2573 10.5525 10.612C10.5525 10.9667 10.6272 11.284 10.7765 11.564C10.9258 11.8347 11.1312 12.0493 11.3925 12.208C11.6538 12.3573 11.9525 12.432 12.2885 12.432ZM18.7508 14L16.2168 7.238H18.0648L19.7168 12.152L19.1568 12.166L20.8508 7.238H22.1808L23.8748 12.166L23.3148 12.152L24.9668 7.238H26.8148L24.2948 14H22.9648L21.2568 9.324H21.7748L20.0668 14H18.7508ZM30.7882 14.14C30.0789 14.14 29.4489 13.9907 28.8982 13.692C28.3475 13.384 27.9089 12.964 27.5822 12.432C27.2649 11.9 27.1062 11.2933 27.1062 10.612C27.1062 9.94 27.2602 9.34267 27.5682 8.82C27.8855 8.288 28.3149 7.868 28.8562 7.56C29.3975 7.24267 29.9995 7.084 30.6622 7.084C31.3155 7.084 31.8895 7.23333 32.3842 7.532C32.8882 7.82133 33.2802 8.22267 33.5602 8.736C33.8495 9.24 33.9942 9.814 33.9942 10.458C33.9942 10.5793 33.9849 10.7053 33.9662 10.836C33.9569 10.9573 33.9335 11.0973 33.8962 11.256L28.2122 11.27V9.898L33.0422 9.884L32.3002 10.458C32.2815 10.0567 32.2069 9.72067 32.0762 9.45C31.9549 9.17933 31.7729 8.974 31.5302 8.834C31.2969 8.68467 31.0075 8.61 30.6622 8.61C30.2982 8.61 29.9809 8.694 29.7102 8.862C29.4395 9.02067 29.2295 9.24933 29.0802 9.548C28.9402 9.83733 28.8702 10.1827 28.8702 10.584C28.8702 10.9947 28.9449 11.354 29.0942 11.662C29.2529 11.9607 29.4769 12.194 29.7662 12.362C30.0555 12.5207 30.3915 12.6 30.7742 12.6C31.1195 12.6 31.4322 12.544 31.7122 12.432C31.9922 12.3107 32.2349 12.1333 32.4402 11.9L33.5182 12.978C33.1915 13.3607 32.7902 13.65 32.3142 13.846C31.8475 14.042 31.3389 14.14 30.7882 14.14ZM35.1284 14V7.238H36.9624V14H35.1284ZM36.9624 10.262L36.2484 9.786C36.3324 8.95533 36.5751 8.302 36.9764 7.826C37.3777 7.34067 37.9564 7.098 38.7124 7.098C39.0391 7.098 39.3331 7.154 39.5944 7.266C39.8557 7.36867 40.0937 7.54133 40.3084 7.784L39.1604 9.1C39.0577 8.988 38.9317 8.904 38.7824 8.848C38.6424 8.792 38.4791 8.764 38.2924 8.764C37.9004 8.764 37.5784 8.89 37.3264 9.142C37.0837 9.38467 36.9624 9.758 36.9624 10.262ZM43.9952 14.14C43.2859 14.14 42.6559 13.9907 42.1052 13.692C41.5546 13.384 41.1159 12.964 40.7892 12.432C40.4719 11.9 40.3132 11.2933 40.3132 10.612C40.3132 9.94 40.4672 9.34267 40.7752 8.82C41.0926 8.288 41.5219 7.868 42.0632 7.56C42.6046 7.24267 43.2066 7.084 43.8692 7.084C44.5226 7.084 45.0966 7.23333 45.5912 7.532C46.0952 7.82133 46.4872 8.22267 46.7672 8.736C47.0566 9.24 47.2012 9.814 47.2012 10.458C47.2012 10.5793 47.1919 10.7053 47.1732 10.836C47.1639 10.9573 47.1406 11.0973 47.1032 11.256L41.4192 11.27V9.898L46.2492 9.884L45.5072 10.458C45.4886 10.0567 45.4139 9.72067 45.2832 9.45C45.1619 9.17933 44.9799 8.974 44.7372 8.834C44.5039 8.68467 44.2146 8.61 43.8692 8.61C43.5052 8.61 43.1879 8.694 42.9172 8.862C42.6466 9.02067 42.4366 9.24933 42.2872 9.548C42.1472 9.83733 42.0772 10.1827 42.0772 10.584C42.0772 10.9947 42.1519 11.354 42.3012 11.662C42.4599 11.9607 42.6839 12.194 42.9732 12.362C43.2626 12.5207 43.5986 12.6 43.9812 12.6C44.3266 12.6 44.6392 12.544 44.9192 12.432C45.1992 12.3107 45.4419 12.1333 45.6472 11.9L46.7252 12.978C46.3986 13.3607 45.9972 13.65 45.5212 13.846C45.0546 14.042 44.5459 14.14 43.9952 14.14ZM51.1914 14.14C50.5661 14.14 50.0061 13.986 49.5114 13.678C49.0168 13.37 48.6248 12.95 48.3354 12.418C48.0554 11.886 47.9154 11.2887 47.9154 10.626C47.9154 9.954 48.0554 9.352 48.3354 8.82C48.6248 8.288 49.0121 7.868 49.4974 7.56C49.9921 7.252 50.5568 7.098 51.1914 7.098C51.6768 7.098 52.1108 7.196 52.4934 7.392C52.8854 7.588 53.1981 7.86333 53.4314 8.218C53.6741 8.56333 53.8048 8.95533 53.8234 9.394V11.802C53.8048 12.2407 53.6788 12.6373 53.4454 12.992C53.2121 13.3467 52.8994 13.6267 52.5074 13.832C52.1154 14.0373 51.6768 14.14 51.1914 14.14ZM51.4994 12.446C51.8448 12.446 52.1434 12.3713 52.3954 12.222C52.6568 12.0633 52.8574 11.8487 52.9974 11.578C53.1468 11.298 53.2214 10.976 53.2214 10.612C53.2214 10.2573 53.1468 9.94467 52.9974 9.674C52.8574 9.394 52.6568 9.17933 52.3954 9.03C52.1434 8.87133 51.8494 8.792 51.5134 8.792C51.1681 8.792 50.8648 8.87133 50.6034 9.03C50.3514 9.18867 50.1508 9.40333 50.0014 9.674C49.8614 9.94467 49.7914 10.2573 49.7914 10.612C49.7914 10.976 49.8614 11.298 50.0014 11.578C50.1508 11.8487 50.3561 12.0633 50.6174 12.222C50.8788 12.3713 51.1728 12.446 51.4994 12.446ZM54.9434 14H53.1234V12.18L53.4174 10.528L53.1094 8.904V3.878H54.9434V14ZM63.0523 14.14C62.5669 14.14 62.1283 14.0373 61.7363 13.832C61.3443 13.6267 61.0316 13.3467 60.7983 12.992C60.5649 12.6373 60.4389 12.2407 60.4203 11.802V9.394C60.4389 8.95533 60.5649 8.56333 60.7983 8.218C61.0409 7.86333 61.3583 7.588 61.7503 7.392C62.1423 7.196 62.5763 7.098 63.0523 7.098C63.6776 7.098 64.2376 7.252 64.7323 7.56C65.2269 7.868 65.6143 8.288 65.8943 8.82C66.1836 9.352 66.3283 9.954 66.3283 10.626C66.3283 11.2887 66.1836 11.886 65.8943 12.418C65.6143 12.95 65.2269 13.37 64.7323 13.678C64.2376 13.986 63.6776 14.14 63.0523 14.14ZM62.7443 12.446C63.0803 12.446 63.3743 12.3713 63.6263 12.222C63.8876 12.0633 64.0883 11.8487 64.2283 11.578C64.3776 11.298 64.4523 10.976 64.4523 10.612C64.4523 10.2573 64.3776 9.94467 64.2283 9.674C64.0883 9.394 63.8876 9.17933 63.6263 9.03C63.3649 8.87133 63.0663 8.792 62.7303 8.792C62.3943 8.792 62.0956 8.87133 61.8343 9.03C61.5823 9.17933 61.3816 9.394 61.2323 9.674C61.0923 9.94467 61.0223 10.2573 61.0223 10.612C61.0223 10.976 61.0923 11.298 61.2323 11.578C61.3816 11.8487 61.5869 12.0633 61.8483 12.222C62.1096 12.3713 62.4083 12.446 62.7443 12.446ZM59.3003 14V3.878H61.1343V8.904L60.8263 10.528L61.1203 12.18V14H59.3003ZM69.4673 14.056L66.6393 7.238H68.6273L70.5033 12.446H69.8313L71.7773 7.238H73.7793L70.7693 14.042L69.4673 14.056ZM67.5913 16.828L69.6493 12.474L70.7693 14.042L69.5373 16.828H67.5913Z" fill="#979797"/>
<path d="M76.9109 14L80.8729 4.158H82.4269L86.3749 14H84.3449L81.2929 5.922H81.9929L78.8989 14H76.9109ZM79.0109 12.166V10.57H84.3029V12.166H79.0109ZM91.2027 14.14C90.7173 14.14 90.2787 14.042 89.8867 13.846C89.4947 13.6407 89.182 13.3653 88.9487 13.02C88.7153 12.6747 88.5893 12.278 88.5707 11.83V9.436C88.5893 8.988 88.7153 8.59133 88.9487 8.246C89.1913 7.89133 89.504 7.61133 89.8867 7.406C90.2787 7.20067 90.7173 7.098 91.2027 7.098C91.828 7.098 92.388 7.252 92.8827 7.56C93.3773 7.868 93.7647 8.288 94.0447 8.82C94.334 9.352 94.4787 9.954 94.4787 10.626C94.4787 11.2887 94.334 11.886 94.0447 12.418C93.7647 12.95 93.3773 13.37 92.8827 13.678C92.388 13.986 91.828 14.14 91.2027 14.14ZM90.8807 12.446C91.2167 12.446 91.5153 12.3713 91.7767 12.222C92.038 12.0633 92.2387 11.8487 92.3787 11.578C92.528 11.298 92.6027 10.976 92.6027 10.612C92.6027 10.2573 92.528 9.94467 92.3787 9.674C92.2387 9.394 92.038 9.17933 91.7767 9.03C91.5153 8.87133 91.2167 8.792 90.8807 8.792C90.554 8.792 90.26 8.87133 89.9987 9.03C89.7373 9.17933 89.532 9.394 89.3827 9.674C89.2427 9.94467 89.1727 10.2573 89.1727 10.612C89.1727 10.976 89.2427 11.298 89.3827 11.578C89.532 11.8487 89.7327 12.0633 89.9847 12.222C90.246 12.3713 90.5447 12.446 90.8807 12.446ZM87.4507 16.828V7.238H89.2847V9.016L88.9767 10.654L89.2707 12.292V16.828H87.4507ZM99.4331 14.14C98.9478 14.14 98.5091 14.042 98.1171 13.846C97.7251 13.6407 97.4125 13.3653 97.1791 13.02C96.9458 12.6747 96.8198 12.278 96.8011 11.83V9.436C96.8198 8.988 96.9458 8.59133 97.1791 8.246C97.4218 7.89133 97.7345 7.61133 98.1171 7.406C98.5091 7.20067 98.9478 7.098 99.4331 7.098C100.058 7.098 100.618 7.252 101.113 7.56C101.608 7.868 101.995 8.288 102.275 8.82C102.564 9.352 102.709 9.954 102.709 10.626C102.709 11.2887 102.564 11.886 102.275 12.418C101.995 12.95 101.608 13.37 101.113 13.678C100.618 13.986 100.058 14.14 99.4331 14.14ZM99.1111 12.446C99.4471 12.446 99.7458 12.3713 100.007 12.222C100.268 12.0633 100.469 11.8487 100.609 11.578C100.758 11.298 100.833 10.976 100.833 10.612C100.833 10.2573 100.758 9.94467 100.609 9.674C100.469 9.394 100.268 9.17933 100.007 9.03C99.7458 8.87133 99.4471 8.792 99.1111 8.792C98.7845 8.792 98.4905 8.87133 98.2291 9.03C97.9678 9.17933 97.7625 9.394 97.6131 9.674C97.4731 9.94467 97.4031 10.2573 97.4031 10.612C97.4031 10.976 97.4731 11.298 97.6131 11.578C97.7625 11.8487 97.9631 12.0633 98.2151 12.222C98.4765 12.3713 98.7751 12.446 99.1111 12.446ZM95.6811 16.828V7.238H97.5151V9.016L97.2071 10.654L97.5011 12.292V16.828H95.6811ZM103.912 14V3.878H105.746V14H103.912ZM107.371 14V7.238H109.219V14H107.371ZM108.295 6.146C107.996 6.146 107.749 6.048 107.553 5.852C107.357 5.64667 107.259 5.39467 107.259 5.096C107.259 4.80667 107.357 4.55933 107.553 4.354C107.749 4.14867 107.996 4.046 108.295 4.046C108.603 4.046 108.85 4.14867 109.037 4.354C109.233 4.55933 109.331 4.80667 109.331 5.096C109.331 5.39467 109.233 5.64667 109.037 5.852C108.85 6.048 108.603 6.146 108.295 6.146ZM114.077 14.14C113.368 14.14 112.738 13.9907 112.187 13.692C111.637 13.384 111.198 12.964 110.871 12.432C110.554 11.9 110.395 11.2933 110.395 10.612C110.395 9.94 110.549 9.34267 110.857 8.82C111.175 8.288 111.604 7.868 112.145 7.56C112.687 7.24267 113.289 7.084 113.951 7.084C114.605 7.084 115.179 7.23333 115.673 7.532C116.177 7.82133 116.569 8.22267 116.849 8.736C117.139 9.24 117.283 9.814 117.283 10.458C117.283 10.5793 117.274 10.7053 117.255 10.836C117.246 10.9573 117.223 11.0973 117.185 11.256L111.501 11.27V9.898L116.331 9.884L115.589 10.458C115.571 10.0567 115.496 9.72067 115.365 9.45C115.244 9.17933 115.062 8.974 114.819 8.834C114.586 8.68467 114.297 8.61 113.951 8.61C113.587 8.61 113.27 8.694 112.999 8.862C112.729 9.02067 112.519 9.24933 112.369 9.548C112.229 9.83733 112.159 10.1827 112.159 10.584C112.159 10.9947 112.234 11.354 112.383 11.662C112.542 11.9607 112.766 12.194 113.055 12.362C113.345 12.5207 113.681 12.6 114.063 12.6C114.409 12.6 114.721 12.544 115.001 12.432C115.281 12.3107 115.524 12.1333 115.729 11.9L116.807 12.978C116.481 13.3607 116.079 13.65 115.603 13.846C115.137 14.042 114.628 14.14 114.077 14.14ZM121.273 14.14C120.648 14.14 120.088 13.986 119.593 13.678C119.099 13.37 118.707 12.95 118.417 12.418C118.137 11.886 117.997 11.2887 117.997 10.626C117.997 9.954 118.137 9.352 118.417 8.82C118.707 8.288 119.094 7.868 119.579 7.56C120.074 7.252 120.639 7.098 121.273 7.098C121.759 7.098 122.193 7.196 122.575 7.392C122.967 7.588 123.28 7.86333 123.513 8.218C123.756 8.56333 123.887 8.95533 123.905 9.394V11.802C123.887 12.2407 123.761 12.6373 123.527 12.992C123.294 13.3467 122.981 13.6267 122.589 13.832C122.197 14.0373 121.759 14.14 121.273 14.14ZM121.581 12.446C121.927 12.446 122.225 12.3713 122.477 12.222C122.739 12.0633 122.939 11.8487 123.079 11.578C123.229 11.298 123.303 10.976 123.303 10.612C123.303 10.2573 123.229 9.94467 123.079 9.674C122.939 9.394 122.739 9.17933 122.477 9.03C122.225 8.87133 121.931 8.792 121.595 8.792C121.25 8.792 120.947 8.87133 120.685 9.03C120.433 9.18867 120.233 9.40333 120.083 9.674C119.943 9.94467 119.873 10.2573 119.873 10.612C119.873 10.976 119.943 11.298 120.083 11.578C120.233 11.8487 120.438 12.0633 120.699 12.222C120.961 12.3713 121.255 12.446 121.581 12.446ZM125.025 14H123.205V12.18L123.499 10.528L123.191 8.904V3.878H125.025V14Z" fill="#1B1F3D"/>
<path d="M126.648 14V7.238H128.496V14H126.648ZM127.572 6.146C127.273 6.146 127.026 6.048 126.83 5.852C126.634 5.64667 126.536 5.39467 126.536 5.096C126.536 4.80667 126.634 4.55933 126.83 4.354C127.026 4.14867 127.273 4.046 127.572 4.046C127.88 4.046 128.127 4.14867 128.314 4.354C128.51 4.55933 128.608 4.80667 128.608 5.096C128.608 5.39467 128.51 5.64667 128.314 5.852C128.127 6.048 127.88 6.146 127.572 6.146ZM132.753 14V4.368H134.671V14H132.753ZM129.617 5.852V4.158H137.807V5.852H129.617Z" fill="#EC6165"/>
<rect x="143" width="37" height="18" rx="9" fill="#EC6165"/>
<path d="M152.968 12V6.496H154.064V12H152.968ZM151.176 7.344V6.376H155.856V7.344H151.176ZM156.607 12V6.376H157.695V12H156.607ZM157.407 12V11.04H160.519V12H157.407ZM157.407 9.592V8.664H160.239V9.592H157.407ZM157.407 7.336V6.376H160.479V7.336H157.407ZM163.926 12.08C163.516 12.08 163.134 12.008 162.782 11.864C162.43 11.7147 162.121 11.5093 161.854 11.248C161.593 10.9813 161.39 10.672 161.246 10.32C161.108 9.968 161.038 9.58933 161.038 9.184C161.038 8.77867 161.108 8.4 161.246 8.048C161.39 7.696 161.593 7.38933 161.854 7.128C162.121 6.86667 162.428 6.66133 162.774 6.512C163.126 6.36267 163.51 6.288 163.926 6.288C164.374 6.288 164.769 6.36267 165.11 6.512C165.452 6.656 165.753 6.856 166.014 7.112L165.278 7.848C165.124 7.67733 164.934 7.544 164.71 7.448C164.486 7.352 164.225 7.304 163.926 7.304C163.665 7.304 163.425 7.34933 163.206 7.44C162.993 7.52533 162.806 7.65333 162.646 7.824C162.486 7.98933 162.364 8.18933 162.278 8.424C162.193 8.65333 162.15 8.90667 162.15 9.184C162.15 9.46667 162.193 9.72267 162.278 9.952C162.364 10.1813 162.486 10.3813 162.646 10.552C162.806 10.7173 162.993 10.8453 163.206 10.936C163.425 11.0267 163.665 11.072 163.926 11.072C164.241 11.072 164.51 11.024 164.734 10.928C164.964 10.832 165.156 10.696 165.31 10.52L166.046 11.256C165.785 11.5173 165.481 11.72 165.134 11.864C164.788 12.008 164.385 12.08 163.926 12.08ZM166.803 12V6.376H167.891V12H166.803ZM170.331 12V6.376H171.419V12H170.331ZM167.491 9.576V8.616H170.635V9.576H167.491Z" fill="white"/>
</svg>
